<svg aria-hidden="true" style="position: absolute; width: 0; height: 0; overflow: hidden;" version="1.1" xmlns="http://www.w3.org/2000/svg" xmlns:xlink="http://www.w3.org/1999/xlink">
<defs>
<symbol id="icon-menu" viewBox="0 0 48 32">
<path fill="#fff" style="fill: var(--color1, #fff)" d="M46.5 31h-22.5v-5h22.5v5zM46.5 18.5h-45v-5h45v5zM46.5 6h-45v-5h45v5z"></path>
</symbol>
<symbol id="icon-Vector-1" viewBox="0 0 28 32">
<path fill="#fff" style="fill: var(--color1, #fff)" d="M26.209 18.323l-21.21 12.307c-1.8 1.043-4.11-0.22-4.11-2.323v-24.613c0-2.1 2.307-3.367 4.11-2.32l21.21 12.307c0.409 0.234 0.75 0.572 0.986 0.979s0.361 0.871 0.361 1.342-0.125 0.935-0.361 1.342c-0.237 0.408-0.577 0.746-0.986 0.979z"></path>
</symbol>
<symbol id="icon-Vector-2" viewBox="0 0 34 32">
<path fill="#cd3939" style="fill: var(--color2, #cd3939)" d="M4.513 0.112l27.046 27.048c0.422 0.422 0.659 0.994 0.659 1.591s-0.237 1.169-0.659 1.591c-0.422 0.422-0.994 0.659-1.591 0.659s-1.169-0.237-1.591-0.659l-6.894-6.896-5.304 5.303-6.18-6.18v3.93c0 0.398-0.158 0.779-0.439 1.061s-0.663 0.439-1.061 0.439-0.779-0.158-1.061-0.439c-0.281-0.281-0.439-0.663-0.439-1.061v-6c-0-0.382-0.147-0.75-0.409-1.028s-0.621-0.445-1.003-0.468c-0.382-0.022-0.757 0.102-1.051 0.347s-0.482 0.593-0.527 0.973l-0.010 0.176v1.5c0 0.398-0.158 0.779-0.439 1.061s-0.663 0.439-1.061 0.439-0.779-0.158-1.061-0.439c-0.281-0.281-0.439-0.663-0.439-1.061v-13.179c-0.062-3.131 1.105-6.161 3.252-8.441l0.261-0.269zM4.874 4.717l-0.077 0.165c-0.45 0.995-0.716 2.064-0.783 3.154l-0.015 0.463-0.002 0.18c0.018 2.226 0.863 4.366 2.37 6.005l0.266 0.277 9.544 9.544 4.244-4.242-15.548-15.547z"></path>
</symbol>
<symbol id="icon-Vector-3" viewBox="0 0 32 32">
<path fill="#fd5252" style="fill: var(--color3, #fd5252)" d="M31 16c0-8.284-6.716-15-15-15-8.069 0-14.649 6.373-14.985 14.36-0.004 0.098-0.005 0.197-0.007 0.296-0.002 0.115-0.008 0.229-0.008 0.344v0.051c0 8.257 6.716 14.949 15 14.949s15-6.693 15-14.949l-0.001-0.025 0.001-0.026zM18.995 29.675c-0.263-0.143-0.515-0.376-0.617-0.694-0.185-0.576-0.042-1.023 0.171-1.543 0.17-0.417-0.058-0.897 0.055-1.333 0.221-0.849 0.487-1.768 0.405-2.68-0.051-0.559-0.175-0.585-0.589-0.908-0.437-0.342-0.437-0.827-0.729-1.26-0.265-0.393 0.447-1.889 0.249-1.979-0.222-0.103-0.728 0.031-0.889-0.181-0.172-0.229-0.292-0.5-0.528-0.677-0.153-0.115-0.827-0.497-1.007-0.471-0.907 0.135-1.888-0.748-2.467-1.325-0.399-0.395-0.565-0.839-0.857-1.297-0.247-0.387-0.621-0.421-0.805-0.901-0.193-0.502-0.078-1.145-0.136-1.673-0.063-0.568-0.345-0.748-0.698-1.183-0.754-0.931-1.031-2.322-2.462-2.322-0.768 0-0.714 1.674-1.333 1.45-0.7-0.254-1.783 0.945-1.768 0.784 0.082-0.837 0.941-1.244 1.026-1.493 0.274-0.819-1.226-0.623-1.034-1.306 0.094-0.336 1.049-0.581 0.851-0.781-0.059-0.061-0.79-0.574-0.754-0.599 0.136-0.095 0.724 0.206 0.596-0.185-0.043-0.13-0.112-0.25-0.178-0.37 0.304-0.345 0.624-0.674 0.96-0.987 0.507-0.042 1.033-0.010 1.223 0.027 1.208 0.238 1.628 0.849 2.836 0.397 0.581-0.217 2.723 0.16 3.030 0.769 0.167 0.333 0.789-0.202 1.031-0.237 0.26-0.039 0.847 0.362 1.027 0.116 0.471-0.646-0.302-0.913 0.611-0.417 0.613 0.333 1.809-1.133 1.431 0.591-0.274 1.242-1.279 1.27-2.016 2.079-0.725 0.797 1.436 1.014 1.491 1.734 0.16 2.073 1.265-0.169 0.969-0.906-0.573-1.428 0.652-1.036 1.145-0.129 0.273 0.504 0.481 0.079 0.817-0.096 0.271-0.142 0.344 0.625 0.402 0.758 0.193 0.444 0.825 0.576 0.718 1.147-0.119 0.63-0.567 0.441-1.004 0.547-0.489 0.118 0.079 0.53 0.008 0.679-0.077 0.164-0.666 0.232-0.823 0.325-0.462 0.272-0.179 0.803-0.541 1.087-0.248 0.196-0.498 0.069-0.546 0.435-0.057 0.433-0.854 0.572-0.75 0.985 0.028 0.113 0.258 0.961 0.113 1.007-0.067 0.021-0.592-0.737-0.735-0.813-0.284-0.151-1.575-0.028-1.741 0.827-0.107 0.553 0.781 1.425 1.008 0.664 0.281-0.937 0.414 0.545 0.347 0.603 0.134 0.117 0.918-0.192 0.685 0.35-0.099 0.229 0.097 0.828 0.445 0.644 0.145-0.077 0.521 0.155 0.586 0.030 0.094-0.143 0.221-0.262 0.371-0.346 0.351-0.205 0.875-0.013 1.259 0.010 0.234 0.013 2.156 1.062 2.167 1.273 0.042 0.787 1.495 0.685 1.718 0.967 0.599 0.763 0.415 0.375-0.022 1.353-0.221 0.492-0.029 1.095-0.563 1.452-0.257 0.171-0.571 0.086-0.799 0.327-0.206 0.219-0.125 0.48-0.25 0.732-0.151 0.301-2.173 2.118-2.307 2.558-0.066 0.221-0.67 0.413-0.161 0.624 0.296 0.087-0.655 0.987-0.198 1.359 0.111 0.091 0.185 0.167 0.239 0.236-0.228 0.061-0.455 0.116-0.684 0.166zM17.797 2.119c-0.020 0.072 0.010 0.158 0.135 0.241 0.283 0.188-0.081 0.604-0.471 0.336s-1.266 0.12-1.205 0.322c0.059 0.202 0.33 0.281 0.748 0.121s0.589 0.024 0.659 0.215c0.048 0.13 0 0.201-0.013 0.376s-0.498 0.054-0.901 0.081c-0.405 0.027-0.835-0.081-0.823-0.309 0.014-0.228-0.431-0.644-0.695-0.818s0.116-0.55 0.467-0.268c0.35 0.282 0.364-0.054 0.768-0.16 0.229-0.061 0.137-0.152 0.059-0.24 0.43 0.015 0.854 0.051 1.273 0.104zM19.555 6.553c0.303 0.082 0.828 0.465 0.828 0.646s-0.239 0.409-0.344 0.383c-0.761-0.186-1.403-0.937-1.757-1.349-0.617-0.718-0.578-0.103-1.556-0.413-0.25-0.080-0.646-0.856-0.384-1.238s0.566-0.443 0.808-0.341c0.242 0.1 0.949-0.322 1.111 0.181 0.161 0.503 0.605 1.146 1.010 1.318 0.405 0.171-0.020 0.732 0.283 0.814zM19.798 8.889c0.121 0.242-0.727-0.282-0.929-0.524s-0.505-0.785-0.262-1.027c0.242-0.241 0.785 0.503 1.071 0.665 0.565 0.322-0 0.645 0.121 0.886zM15.501 5.232c0.058-0.080 0.182 0.121 0.293 0.322s-0.042 0.486-0.293 0.442c-0.251-0.042-0.141-0.568 0-0.765zM15.501 3.206c0 0 0.236 0.577 0 0.483s-0.248-0.336 0-0.483zM15.549 5.031c-0.067-0.16-0.083-0.82 0.081-1.020 0.242-0.295 0.633 0.282 0.37 0.51s-0.384 0.671-0.451 0.51zM12.511 5.739c-0.44-0.032-0.449-0.412-0.51-0.613s-0.425 0.383-0.793 0c-0.368-0.383 0.086-0.886 0.005-1.188s0.868 0 1.010 0 0.525 0.624 0.626 0.614c0.101-0.010 0.647 0.494 0.647 0.292s0.083-0.544 0.465-0.584c0.586-0.061 0.061 0.644 0.040 0.919-0.019 0.274 0.445 0.752 0.616 0.954 0.172 0.202-0.433 0.343-0.535 0.221s-0.364 0-0.586 0.161c-0.222 0.161-0.828-0.221-1.111-0.343s0.566-0.402 0.126-0.433zM14.081 2.562c0.39 0.135 0.612 0.255 0.804 0 0.186-0.246 0.327 0.536 0.193 0.751s-0.391 0.162-0.431 0c-0.040-0.16-0.956-0.885-0.565-0.751zM14.647 4.991c-0.134-0.175-0.148-0.376 0-0.524s0.1-0.322 0.364-0.375c0.13-0.027 0.148 0.174 0.148 0.362s0.162 0.429 0 0.724c-0.162 0.295-0.377-0.013-0.512-0.187zM15.749 2.006c-0.006 0.037-0.030 0.059-0.092 0.053-0.042-0.007-0.083-0.023-0.118-0.047 0.071-0.002 0.14-0.005 0.21-0.006zM12.694 2.575c0.309 0 0.27 0.209 0.525 0.36s0.121-0.776 0.296-0.427c0.175 0.349 0.695 0.832 0.445 0.925-0.215 0.082-1.117 0.429-1.198 0.369s-0.188-0.315-0.405-0.369c-0.216-0.054-0.444-0.563-0.593-0.55-0.056 0.005-0.062-0.092-0.024-0.221 0.26-0.084 0.522-0.159 0.786-0.228 0.029 0.079 0.073 0.14 0.168 0.14zM19.454 17.587c-0.323 0.333-0.878-0.232-1.261-0.212s-0.576-0.382-0.909-0.342c-0.334 0.040 0.091-0.423 0.556-0.181 0.463 0.241 1.878 0.462 1.615 0.735zM25.919 6.12c-0.094 0.12-0.201 0.204-0.304 0.293-0.303 0.262-0.868 0.242-0.949 0.423s-0.283 0.745-0.99 0.747c-0.707 0.002-0.505 1.066-0.565 1.369s-0.222 0.662-0.424 0.4c-0.202-0.261-0.283-0.162-0.908-0.927s-0.385-1.188-0.182-1.409c0.202-0.221 0.283-0.745 0-0.665s-0.445-0.101-0.384-0.351 0.363-0.433 0-0.701c-0.364-0.267-0.162-1.223-0.445-2.095s-0.667-0.255-1.293-0.221-0.728-0.437-0.445-0.651c2.611 0.577 5.002 1.892 6.889 3.788z"></path>
</symbol>
<symbol id="icon-Vector-4" viewBox="0 0 33 32">
<path fill="#ec0000" style="fill: var(--color4, #ec0000)" d="M32.333 1h-31.667v21.667h31.667v-21.667zM0.667 24.333h6.667v6.667h-6.667v-6.667zM9 24.333h6.667v6.667h-6.667v-6.667zM17.333 24.333h6.667v6.667h-6.667v-6.667zM25.667 24.333h6.667v6.667h-6.667v-6.667z"></path>
</symbol>
<symbol id="icon-Vector-5" viewBox="0 0 32 32">
<path fill="#fff" style="fill: var(--color1, #fff)" opacity="0.45" d="M2.25 0l-2.25 5.492v22.448h8v4.060h4.499l4.25-4.060h6.502l8.749-8.359v-19.581h-29.75zM28.999 18.15l-5.001 4.775h-7.999l-4.25 4.060v-4.058h-6.749v-20.061h23.999v15.284zM23.999 8.359v8.349h-2.999v-8.349h2.999zM16 8.359v8.349h-2.999v-8.349h2.999z"></path>
</symbol>
<symbol id="icon-Vector-6" viewBox="0 0 32 32">
<path fill="#fff" style="fill: var(--color1, #fff)" opacity="0.45" d="M32 16c0 8.836-7.164 16-16 16s-16-7.164-16-16c0-8.836 7.164-16 16-16s16 7.164 16 16zM16.573 11.812c-1.556 0.647-4.667 1.987-9.331 4.019-0.757 0.301-1.155 0.596-1.191 0.884-0.061 0.488 0.549 0.68 1.379 0.94 0.113 0.036 0.231 0.072 0.351 0.112 0.817 0.265 1.916 0.576 2.487 0.588 0.519 0.011 1.097-0.203 1.736-0.64 4.357-2.943 6.607-4.429 6.748-4.461 0.1-0.023 0.239-0.052 0.332 0.032 0.093 0.083 0.084 0.24 0.075 0.283-0.061 0.257-2.453 2.483-3.693 3.635-0.387 0.359-0.66 0.613-0.716 0.672-0.125 0.129-0.253 0.253-0.376 0.372-0.76 0.731-1.328 1.28 0.032 2.176 0.653 0.431 1.176 0.787 1.697 1.141 0.569 0.388 1.137 0.775 1.873 1.257 0.187 0.123 0.365 0.249 0.54 0.373 0.663 0.473 1.259 0.897 1.995 0.831 0.427-0.040 0.869-0.441 1.093-1.64 0.529-2.835 1.572-8.973 1.813-11.504 0.015-0.21 0.006-0.421-0.027-0.629-0.019-0.168-0.101-0.323-0.229-0.433-0.191-0.156-0.487-0.189-0.62-0.187-0.601 0.011-1.524 0.332-5.968 2.18z"></path>
</symbol>
<symbol id="icon-Vector-7" viewBox="0 0 32 32">
<path fill="#fff" style="fill: var(--color1, #fff)" opacity="0.45" d="M16 0.64c-8.483 0-15.36 6.877-15.36 15.36s6.877 15.36 15.36 15.36c8.483 0 15.36-6.877 15.36-15.36s-6.877-15.36-15.36-15.36zM22.248 13.222c0.006 0.131 0.008 0.262 0.008 0.39 0 4-3.042 8.61-8.606 8.61-1.644 0.003-3.254-0.47-4.637-1.36 0.235 0.029 0.477 0.040 0.722 0.040 1.418 0 2.722-0.482 3.757-1.294-0.631-0.012-1.242-0.221-1.749-0.598s-0.883-0.901-1.077-1.502c0.453 0.086 0.92 0.068 1.365-0.053-0.685-0.139-1.3-0.509-1.743-1.050s-0.684-1.218-0.684-1.916v-0.037c0.408 0.226 0.875 0.363 1.371 0.379-0.642-0.427-1.096-1.084-1.27-1.835s-0.054-1.541 0.334-2.207c0.76 0.934 1.708 1.699 2.782 2.244s2.251 0.858 3.454 0.92c-0.153-0.649-0.087-1.331 0.187-1.938s0.742-1.108 1.33-1.423c0.588-0.315 1.263-0.426 1.921-0.318s1.261 0.432 1.717 0.919c0.677-0.134 1.326-0.382 1.92-0.734-0.226 0.701-0.698 1.296-1.33 1.675 0.6-0.072 1.185-0.233 1.738-0.478-0.406 0.608-0.917 1.138-1.509 1.566z"></path>
</symbol>
<symbol id="icon-Vector-8" viewBox="0 0 35 32">
<path fill="#fd5252" style="fill: var(--color3, #fd5252)" d="M22.854 11.667c0.535 0 1.051 0.197 1.45 0.552s0.654 0.845 0.716 1.377l0.015 0.253v9.53c0.014 1.99-0.752 3.905-2.134 5.336s-3.271 2.263-5.259 2.317c-1.989 0.054-3.92-0.673-5.378-2.027s-2.328-3.224-2.422-5.212l-0.011-0.415v-9.53c0-0.535 0.197-1.051 0.552-1.45s0.845-0.654 1.377-0.716l0.253-0.015h10.841zM8.236 11.667c-0.317 0.548-0.511 1.158-0.567 1.789l-0.020 0.393v9.53l0.011 0.458c0.065 1.403 0.425 2.727 1.021 3.916-0.919 0.386-1.917 0.546-2.91 0.466s-1.953-0.396-2.799-0.923c-0.846-0.527-1.553-1.249-2.062-2.106s-0.805-1.823-0.863-2.818l-0.011-0.367v-8.158c0-0.534 0.196-1.050 0.551-1.45s0.844-0.655 1.375-0.717l0.255-0.015h6.017zM26.633 11.667h6.074c0.535 0 1.051 0.197 1.45 0.552s0.654 0.845 0.716 1.377l0.015 0.253v8.16c0 1.032-0.256 2.047-0.745 2.956s-1.197 1.681-2.058 2.249c-0.862 0.568-1.851 0.912-2.879 1.003s-2.062-0.075-3.010-0.482c0.586-1.177 0.928-2.461 1.004-3.775l0.017-0.58v-9.53l-0.013-0.325c-0.048-0.654-0.243-1.289-0.572-1.857zM17.43 0.703c1.289 0 2.525 0.512 3.436 1.423s1.423 2.148 1.423 3.437c0 1.289-0.512 2.525-1.423 3.437s-2.148 1.423-3.436 1.423c-1.289 0-2.525-0.512-3.437-1.423s-1.423-2.148-1.423-3.437c0-1.289 0.512-2.525 1.423-3.437s2.148-1.423 3.437-1.423zM28.311 2.073c1.107 0 2.169 0.44 2.952 1.223s1.223 1.845 1.223 2.952-0.44 2.169-1.223 2.952c-0.783 0.783-1.845 1.223-2.952 1.223s-2.169-0.44-2.952-1.223c-0.783-0.783-1.223-1.845-1.223-2.952s0.44-2.169 1.223-2.952c0.783-0.783 1.845-1.223 2.952-1.223zM6.582 2.073c1.107 0 2.169 0.44 2.952 1.223s1.223 1.845 1.223 2.952c0 1.107-0.44 2.169-1.223 2.952s-1.845 1.223-2.952 1.223c-1.107 0-2.169-0.44-2.952-1.223s-1.223-1.845-1.223-2.952c0-1.107 0.44-2.169 1.223-2.952s1.845-1.223 2.952-1.223z"></path>
</symbol>
</defs>
</svg>
